<svg width="145" height="174" viewBox="0 0 145 174" fill="none" xmlns="http://www.w3.org/2000/svg">
<ellipse cx="30.3201" cy="67.4873" rx="10.7588" ry="9.29172" fill="#FFC892"/>
<ellipse cx="112.968" cy="67.4873" rx="10.7588" ry="9.29172" fill="#FFC892"/>
<path fill-rule="evenodd" clip-rule="evenodd" d="M71.3995 18.0944C56.2393 18.0944 31.0539 23.5716 31.0539 58.1955C31.1071 58.1955 31.1598 58.1955 31.2118 58.1954C30.3094 63.6024 30.0315 68.9666 30.6598 73.6002C32.2247 85.1415 47.1241 93.8953 54.3782 96.8295C56.7418 97.8076 63.5232 99.7637 71.739 99.7637C79.9548 99.7637 86.7362 97.8076 89.0998 96.8295C96.3539 93.8953 111.253 85.1415 112.818 73.6002C113.452 68.9281 113.159 63.5175 112.234 58.0693C112.173 23.5583 87.0303 18.0944 71.8885 18.0944H71.3995Z" fill="#FFD0B2"/>
<g opacity="0.7">
<ellipse cx="42.7907" cy="75.5563" rx="6.11297" ry="5.1349" fill="#FFBAA5"/>
<ellipse cx="101.475" cy="75.5563" rx="6.11297" ry="5.1349" fill="#FFBAA5"/>
</g>
<path fill-rule="evenodd" clip-rule="evenodd" d="M84.1067 16.4641C84.7421 15.2328 85.0925 13.8842 85.0925 12.4705C85.0925 6.6636 79.1809 1.95618 71.8885 1.95618C64.5961 1.95618 58.6844 6.6636 58.6844 12.4705C58.6844 13.8424 59.0144 15.153 59.6146 16.3546C39.7868 21.457 31.0538 39.3896 31.0538 58.1955C30.5648 58.3585 29.0977 60.5429 27.1415 67.9763C25.5405 74.0601 29.1808 79.4101 32.2284 83.889C33.8354 86.2507 35.2776 88.3703 35.6997 90.2275C36.6778 94.531 34.6401 99.1932 33.499 100.986C32.8469 101.312 32.1297 101.769 34.4771 100.986C37.4113 100.008 42.7907 97.074 42.3017 88.5159C42.0374 83.8916 40.3454 80.9807 38.7299 78.2015C37.3557 75.8374 36.0369 73.5686 35.6997 70.4215C35.1128 64.9442 38.8784 54.9353 40.8346 50.6154C51.5934 50.6154 57.7064 36.5964 59.418 29.5868C59.418 42.3018 88.2712 48.9038 102.698 50.6154C104.654 54.9353 108.42 64.9442 107.833 70.4215C107.496 73.5686 106.177 75.8374 104.802 78.2015C103.187 80.9807 101.495 83.8916 101.231 88.5159C100.742 97.074 106.121 100.008 109.055 100.986C111.403 101.769 110.685 101.312 110.033 100.986C108.892 99.1932 106.855 94.531 107.833 90.2275C108.255 88.3703 109.697 86.2507 111.304 83.889C114.352 79.4101 117.992 74.0601 116.391 67.9763C114.435 60.5429 112.968 58.3585 112.479 58.1955C112.479 39.5218 103.696 21.7092 84.1067 16.4641Z" fill="#161515"/>
<path d="M83.7094 58.8785L83.7094 58.8785L83.7109 58.8741C85.2025 54.2596 90.2611 51.7404 95.027 53.2809C99.7929 54.8215 102.42 59.825 100.928 64.4396L100.924 64.4522L100.921 64.4649C100.56 65.829 99.6899 67.3824 98.0637 68.5183C96.4417 69.6513 94.0239 70.3992 90.5118 70.0793C88.8871 69.9313 86.8495 69.526 85.145 69.0065C84.2924 68.7467 83.5381 68.4629 82.9664 68.1757C82.6804 68.0321 82.4509 67.893 82.2809 67.7625C82.1055 67.628 82.0228 67.525 81.9911 67.4629C81.9567 67.3957 81.9176 67.2561 81.9016 67.0158C81.8861 66.784 81.8941 66.4957 81.9249 66.1582C81.9866 65.4836 82.1351 64.6569 82.332 63.7775C82.7253 62.0211 83.3001 60.1051 83.7094 58.8785Z" fill="white" stroke="#8C501D" stroke-width="0.978076"/>
<path d="M61.1422 58.8785L61.1421 58.8785L61.1407 58.8741C59.6491 54.2596 54.5905 51.7404 49.8246 53.2809C45.0587 54.8215 42.4318 59.825 43.9235 64.4396L43.9275 64.4522L43.9309 64.4649C44.2918 65.829 45.1616 67.3824 46.7879 68.5183C48.4099 69.6513 50.8277 70.3992 54.3398 70.0793C55.9645 69.9313 58.002 69.526 59.7065 69.0065C60.5591 68.7467 61.3135 68.4629 61.8852 68.1757C62.1711 68.0321 62.4007 67.893 62.5707 67.7625C62.746 67.628 62.8287 67.525 62.8605 67.4629C62.8949 67.3957 62.9339 67.2561 62.95 67.0158C62.9655 66.784 62.9575 66.4957 62.9267 66.1582C62.865 65.4836 62.7165 64.6569 62.5196 63.7775C62.1262 62.0211 61.5515 60.1051 61.1422 58.8785Z" fill="white" stroke="#8C501D" stroke-width="0.978076"/>
<path fill-rule="evenodd" clip-rule="evenodd" d="M94.1458 52.5422C90.3725 53.3753 87.5378 56.9169 87.5378 61.1595C87.5378 65.9767 91.1924 69.8902 95.7261 69.9612C100.406 68.2328 101.771 64.7681 101.789 62.2292C102.074 57.542 98.7421 53.4492 94.1458 52.5422Z" fill="#8C501D"/>
<path fill-rule="evenodd" clip-rule="evenodd" d="M55.6002 52.7942C58.3658 53.6779 60.6608 55.7995 61.6061 58.7238C62.4318 61.1979 63.9258 66.4542 63.2959 67.6857C62.8757 68.5074 60.5269 69.3804 58.0238 69.9603C53.5115 69.8635 49.8818 65.9603 49.8818 61.1595C49.8818 57.2575 52.2796 53.9484 55.6002 52.7942Z" fill="#8C501D"/>
<line x1="43.2365" y1="53.7482" x2="45.4447" y2="55.6804" stroke="#8C501D" stroke-width="0.978076" stroke-linecap="round"/>
<line x1="41.189" y1="57.3607" x2="44.0233" y2="58.1202" stroke="#8C501D" stroke-width="0.978076" stroke-linecap="round"/>
<line x1="0.489038" y1="-0.489038" x2="3.42326" y2="-0.489038" transform="matrix(-0.752577 0.658505 0.658505 0.752577 102.219 53.7942)" stroke="#8C501D" stroke-width="0.978076" stroke-linecap="round"/>
<line x1="0.489038" y1="-0.489038" x2="3.42326" y2="-0.489038" transform="matrix(-0.965926 0.258819 0.258819 0.965926 104.175 57.7065)" stroke="#8C501D" stroke-width="0.978076" stroke-linecap="round"/>
<g clip-path="url(#clip0_2_3449)">
<path d="M60.1519 76.2899C61.2929 77.594 64.2598 80.2022 66.9984 80.2022C69.737 80.2022 71.8888 78.5721 72.6223 77.757C73.3559 78.5721 75.5076 80.2022 78.2463 80.2022C80.9849 80.2022 83.9517 77.594 85.0928 76.2899" stroke="#8C501D" stroke-width="1.46711" stroke-linecap="round" stroke-linejoin="round"/>
</g>
<g clip-path="url(#clip1_2_3449)">
<path d="M72.8667 60.6407L77.1019 71.6441H68.6315L72.8667 60.6407Z" fill="#FF7E36"/>
</g>
<path fill-rule="evenodd" clip-rule="evenodd" d="M60.324 98.5511C55.0034 99.5725 46.0231 103.771 37.4113 115.413C30.1104 125.283 25.3481 131.36 21.7842 135.518C21.4558 135.482 21.1221 135.463 20.784 135.463C15.7874 135.463 11.7368 139.514 11.7368 144.511C11.7368 149.507 15.7874 153.558 20.784 153.558C25.7806 153.558 29.8312 149.507 29.8312 144.511C29.8312 143.271 29.5818 142.089 29.1304 141.013C35.9039 134.18 45.7349 124.481 51.7658 121.037C49.7103 127.919 44.5909 156.254 51.7658 173.364H69.1988L72.2553 162.116L75.5563 173.364H92.7447C99.9196 156.254 94.8002 127.919 92.7447 121.037C98.4966 124.321 108.211 133.802 115.211 140.838C114.712 141.96 114.435 143.203 114.435 144.511C114.435 149.507 118.485 153.558 123.482 153.558C128.479 153.558 132.529 149.507 132.529 144.511C132.529 139.514 128.479 135.463 123.482 135.463C123.255 135.463 123.029 135.472 122.806 135.488C119.023 131.066 113.982 124.717 107.099 115.413C98.17 103.342 88.8448 99.2732 83.6134 98.4509C80.4433 99.1573 76.3135 99.7638 71.739 99.7638C67.3824 99.7638 63.4291 99.2137 60.324 98.5511Z" fill="#FFD0B2"/>
<path fill-rule="evenodd" clip-rule="evenodd" d="M96.3369 145.816C92.6181 146.127 79.2444 147.2 72.1329 147.2C65.7799 147.2 53.5729 146.344 48.1684 145.94C47.773 155.343 48.4808 165.53 51.7658 173.364H69.1988L72.2553 162.116L75.5563 173.364H92.7447C96.0441 165.496 96.7437 155.254 96.3369 145.816Z" fill="#212121"/>
<g style="mix-blend-mode:hard-light" opacity="0.1" filter="url(#filter0_f_2_3449)">
<path fill-rule="evenodd" clip-rule="evenodd" d="M86.7699 100.928C86.1991 103.46 85.3045 106.491 84.8363 108.077C84.6299 108.776 84.4806 110.009 84.3074 111.438C83.8748 115.008 83.2934 119.807 81.3025 120.589C78.5146 121.683 75.3522 122.259 72.133 122.259C68.9139 122.259 65.7514 121.683 62.9636 120.589C60.1757 119.494 59.4181 113.212 59.4181 108.566C59.4181 105.812 58.5542 103.397 57.8509 101.431C57.6511 100.872 57.4643 100.35 57.314 99.8664C59.2639 99.2273 61.0722 98.7655 62.7108 98.4509C69.0601 99.8057 77.1436 100.93 86.0519 100.93C86.2919 100.93 86.5312 100.93 86.7699 100.928Z" fill="#700000"/>
</g>
<mask id="mask0_2_3449" style="mask-type:alpha" maskUnits="userSpaceOnUse" x="34" y="97" width="76" height="53">
<path d="M94.8523 124.113C94.6885 123.197 94.5967 122.753 94.6286 122.993C94.6864 123.429 94.7615 123.799 94.8523 124.113Z" fill="black"/>
<path d="M58.9288 98.2966C43.2796 93.4062 34.3954 112.865 35.455 117.511C35.0475 117.837 34.2324 118 34.7215 118.978C34.966 120.69 37.3321 123.57 38.6338 124.46C39.8563 125.296 43.0351 126.172 44.5022 126.661C45.089 127.052 45.3987 126.172 45.4803 125.683C47.204 125.683 48.7398 126.442 49.4134 124.113C49.5772 123.197 49.6689 122.753 49.6371 122.993C49.5793 123.429 49.5042 123.799 49.4134 124.113C48.6414 128.43 46.269 143.24 47.6809 146.467L48.17 148.912C48.9035 148.912 50.8597 149.646 50.8597 147.689C50.8597 149.646 56.2391 149.646 56.2391 147.689C56.2391 149.646 61.374 149.646 61.374 147.689C61.374 149.646 66.5089 149.646 66.5089 147.689C66.5089 149.646 71.8883 149.646 71.8883 147.689C71.8883 149.646 77.5123 149.646 77.5123 147.689C77.5123 149.646 82.8917 149.646 82.8917 147.689C82.8917 149.646 88.2711 149.646 88.2711 147.689C88.2711 149.646 93.406 149.646 93.406 147.689C93.406 149.646 95.3621 148.912 96.0957 148.912L96.5847 146.467C97.9967 143.24 95.6242 128.43 94.8523 124.113C94.7615 123.799 94.6864 123.429 94.6286 122.993C94.5967 122.753 94.6885 123.197 94.8523 124.113C95.5258 126.442 97.0617 125.683 98.7854 125.683C98.8669 126.172 99.1767 127.052 99.7635 126.661C101.231 126.172 104.409 125.296 105.632 124.46C106.934 123.57 109.3 120.69 109.544 118.978C110.033 118 109.218 117.837 108.811 117.511C109.87 112.865 100.986 93.4062 85.3369 98.2966C82.3212 99.5192 79.2239 101.964 72.1328 101.964C65.0418 101.964 61.9445 99.5192 58.9288 98.2966Z" fill="black"/>
</mask>
<g mask="url(#mask0_2_3449)">
<rect x="19.5613" y="93.4062" width="104.165" height="79.7132" fill="#FFFDEA"/>
<g filter="url(#filter1_ii_2_3449)">
<path d="M45.7248 125.927C42.2038 125.145 36.6776 121.037 35.2105 117.125C34.803 117.369 33.939 117.907 33.7434 118.103C34.1346 124.558 41.568 126.824 45.2358 127.15L45.7248 125.927Z" fill="#FFF3BC"/>
</g>
<g filter="url(#filter2_d_2_3449)">
<path d="M72.3774 102.962C77.0722 111.186 82.1582 103.605 84.1143 98.7856L72.3774 101.677V102.962Z" fill="#FFF1BA"/>
<path d="M72.8665 102.962C68.1717 111.186 63.0857 103.605 61.1295 98.7856L72.8665 101.677V102.962Z" fill="#FFF1BA"/>
</g>
<g filter="url(#filter3_d_2_3449)">
<path fill-rule="evenodd" clip-rule="evenodd" d="M60.0279 98.7847C56.7065 105.435 52.4063 115.13 49.3628 124.398C48.5437 129.046 46.2986 143.307 47.681 146.467L48.17 148.912C48.308 148.912 48.4893 148.938 48.6927 148.967C49.5704 149.093 50.8597 149.278 50.8597 147.689C50.8597 149.646 56.2391 149.646 56.2391 147.689C56.2391 149.646 61.374 149.646 61.374 147.689C61.374 149.646 66.5089 149.646 66.5089 147.689C66.5089 149.646 71.8883 149.646 71.8883 147.689C71.8883 149.646 77.5123 149.646 77.5123 147.689C77.5123 149.646 82.8917 149.646 82.8917 147.689C82.8917 149.646 88.2711 149.646 88.2711 147.689C88.2711 149.646 93.406 149.646 93.406 147.689C93.406 149.278 94.6953 149.093 95.573 148.967C95.7764 148.938 95.9577 148.912 96.0957 148.912L96.5848 146.467C97.9672 143.307 95.7219 129.045 94.9029 124.398C91.8594 115.13 87.5592 105.435 84.2379 98.7847C83.9545 98.9188 83.6664 99.0596 83.3707 99.204L83.3707 99.204L83.3706 99.2041C82.1907 99.7805 80.889 100.416 79.274 100.933C81.0004 105.168 82.0108 112.479 72.3774 112.479C62.7449 112.479 63.3158 105.17 64.9953 100.934C63.3787 100.417 62.0759 99.7809 60.8951 99.2041L60.8951 99.2041L60.8951 99.2041C60.5994 99.0596 60.3113 98.9189 60.0279 98.7847Z" fill="#D1F398"/>
</g>
<mask id="mask1_2_3449" style="mask-type:alpha" maskUnits="userSpaceOnUse" x="47" y="98" width="51" height="52">
<path fill-rule="evenodd" clip-rule="evenodd" d="M60.0279 98.7847C56.7065 105.435 52.4063 115.13 49.3628 124.398C48.5437 129.046 46.2986 143.307 47.681 146.467L48.17 148.912C48.308 148.912 48.4893 148.938 48.6927 148.967C49.5704 149.093 50.8597 149.278 50.8597 147.689C50.8597 149.646 56.2391 149.646 56.2391 147.689C56.2391 149.646 61.374 149.646 61.374 147.689C61.374 149.646 66.5089 149.646 66.5089 147.689C66.5089 149.646 71.8883 149.646 71.8883 147.689C71.8883 149.646 77.5123 149.646 77.5123 147.689C77.5123 149.646 82.8917 149.646 82.8917 147.689C82.8917 149.646 88.2711 149.646 88.2711 147.689C88.2711 149.646 93.406 149.646 93.406 147.689C93.406 149.278 94.6953 149.093 95.573 148.967C95.7764 148.938 95.9577 148.912 96.0957 148.912L96.5848 146.467C97.9672 143.307 95.7219 129.045 94.9029 124.398C91.8594 115.13 87.5592 105.435 84.2379 98.7847C83.9545 98.9188 83.6664 99.0596 83.3707 99.204L83.3707 99.204L83.3706 99.2041C82.1907 99.7805 80.889 100.416 79.274 100.933C81.0004 105.168 82.0108 112.479 72.3774 112.479C62.7449 112.479 63.3158 105.17 64.9953 100.934C63.3787 100.417 62.0759 99.7809 60.8951 99.2041L60.8951 99.2041L60.8951 99.2041C60.5994 99.0596 60.3113 98.9189 60.0279 98.7847Z" fill="#D1F398"/>
</mask>
<g mask="url(#mask1_2_3449)">
<rect x="61.6187" y="93.4062" width="4.89038" height="56.2393" fill="#56800E" fill-opacity="0.3"/>
<rect x="51.8379" y="93.4062" width="4.89038" height="56.2393" fill="#56800E" fill-opacity="0.3"/>
<rect x="87.5376" y="93.4062" width="4.89038" height="56.2393" fill="#56800E" fill-opacity="0.3"/>
<rect x="77.7568" y="93.4062" width="4.89038" height="56.2393" fill="#56800E" fill-opacity="0.3"/>
<rect x="98.2964" y="112.968" width="4.89038" height="56.2393" transform="rotate(90 98.2964 112.968)" fill="#56800E" fill-opacity="0.3"/>
<rect x="98.2964" y="132.529" width="4.89038" height="56.2393" transform="rotate(90 98.2964 132.529)" fill="#56800E" fill-opacity="0.3"/>
<rect x="98.2964" y="142.31" width="4.89038" height="56.2393" transform="rotate(90 98.2964 142.31)" fill="#56800E" fill-opacity="0.3"/>
<rect x="98.2964" y="103.187" width="4.89038" height="56.2393" transform="rotate(90 98.2964 103.187)" fill="#56800E" fill-opacity="0.3"/>
<rect x="98.2964" y="122.749" width="4.89038" height="56.2393" transform="rotate(90 98.2964 122.749)" fill="#56800E" fill-opacity="0.3"/>
<g filter="url(#filter4_d_2_3449)">
<path d="M84.1142 98.2966C86.6252 104.46 88.028 116.377 75.3115 117.934C75.8006 128.667 76.6319 150.428 76.0451 151.602H68.2204C67.6336 150.428 68.465 128.667 68.954 117.934C56.2375 116.377 57.6404 104.46 60.1514 98.2966L65.2862 100.742C63.8191 104.817 64.5527 112.234 71.8883 112.234C80.691 112.234 80.3649 104.817 79.2238 100.742L84.1142 98.2966Z" fill="#49631C"/>
</g>
<g filter="url(#filter5_d_2_3449)">
<path d="M51.38 135.655C51.1844 134.873 51.9506 133.047 52.3581 132.232C53.8252 131.743 62.1389 132.232 62.3834 133.21C62.6279 134.188 63.1169 135.655 62.8724 136.389C62.6279 137.123 51.6245 136.633 51.38 135.655Z" fill="#49631C"/>
</g>
<g filter="url(#filter6_d_2_3449)">
<path d="M92.7391 135.655C92.9347 134.873 92.1686 133.047 91.761 132.232C90.2939 131.743 81.9803 132.232 81.7358 133.21C81.4912 134.188 81.0022 135.655 81.2467 136.389C81.4912 137.123 92.4946 136.633 92.7391 135.655Z" fill="#49631C"/>
</g>
<g filter="url(#filter7_d_2_3449)">
<circle cx="72.1328" cy="124.949" r="1.71163" fill="#F9FFE0"/>
</g>
<g filter="url(#filter8_d_2_3449)">
<circle cx="72.1328" cy="138.642" r="1.71163" fill="#F9FFE0"/>
</g>
</g>
<g filter="url(#filter9_d_2_3449)">
<path fill-rule="evenodd" clip-rule="evenodd" d="M68.238 102.359C69.5755 102.48 71.1145 102.889 72.1204 103.225C72.42 103.324 72.622 103.605 72.622 103.921C72.622 104.685 72.559 105.888 72.3675 107.036C72.2718 107.611 72.1411 108.19 71.9619 108.702C71.7878 109.199 71.5443 109.703 71.1846 110.063C70.8981 110.35 70.4337 110.35 70.1472 110.063C69.8607 109.777 69.8607 109.312 70.1472 109.026C70.2766 108.896 70.4304 108.637 70.5772 108.217C70.6973 107.874 70.7972 107.47 70.8783 107.034C70.631 107.308 70.3585 107.552 70.0652 107.728C69.5255 108.052 68.8875 108.034 68.3484 107.899C67.794 107.76 67.2327 107.474 66.7413 107.105C65.7999 106.399 64.8771 105.194 65.0476 103.83C65.1472 103.033 65.7536 102.632 66.3341 102.464C66.8955 102.302 67.5789 102.299 68.238 102.359ZM70.8757 104.376C70.0184 104.131 68.9944 103.9 68.1056 103.82C67.5054 103.765 67.0395 103.787 66.742 103.873C66.5989 103.915 66.5375 103.959 66.5176 103.978C66.517 103.979 66.5163 103.979 66.5157 103.98C66.5092 103.986 66.5063 103.988 66.5034 104.012C66.4294 104.604 66.8514 105.354 67.6216 105.932C67.9861 106.205 68.3723 106.393 68.7042 106.476C69.0515 106.562 69.2387 106.513 69.3104 106.47C69.642 106.271 70.0345 105.808 70.4106 105.207C70.5855 104.927 70.7429 104.64 70.8757 104.376Z" fill="#DE6656"/>
<path fill-rule="evenodd" clip-rule="evenodd" d="M76.5169 102.359C75.1793 102.48 73.6404 102.889 72.6345 103.225C72.3349 103.324 72.1329 103.605 72.1329 103.921C72.1329 104.685 72.1959 105.888 72.3873 107.036C72.483 107.611 72.6138 108.19 72.793 108.702C72.9671 109.199 73.2106 109.703 73.5703 110.063C73.8567 110.35 74.3212 110.35 74.6077 110.063C74.8942 109.777 74.8942 109.312 74.6077 109.026C74.4783 108.896 74.3245 108.637 74.1777 108.217C74.0576 107.874 73.9577 107.47 73.8766 107.034C74.1239 107.308 74.3963 107.552 74.6897 107.728C75.2294 108.052 75.8673 108.034 76.4065 107.899C76.9609 107.76 77.5222 107.474 78.0136 107.105C78.955 106.399 79.8778 105.194 79.7073 103.83C79.6077 103.033 79.0012 102.632 78.4208 102.464C77.8593 102.302 77.176 102.299 76.5169 102.359ZM73.8792 104.376C74.7365 104.131 75.7605 103.9 76.6493 103.82C77.2495 103.765 77.7154 103.787 78.0129 103.873C78.156 103.915 78.2173 103.959 78.2372 103.978C78.2379 103.979 78.2386 103.979 78.2392 103.98C78.2457 103.986 78.2486 103.988 78.2515 104.012C78.3255 104.604 77.9035 105.354 77.1333 105.932C76.7688 106.205 76.3826 106.393 76.0507 106.476C75.7034 106.562 75.5161 106.513 75.4445 106.47C75.1128 106.271 74.7204 105.808 74.3443 105.207C74.1694 104.927 74.012 104.64 73.8792 104.376Z" fill="#DE6656"/>
<path d="M73.8444 103.921C73.8444 104.596 73.1875 105.143 72.3773 105.143C71.567 105.143 70.9102 104.596 70.9102 103.921C70.9102 103.245 71.567 102.698 72.3773 102.698C73.1875 102.698 73.8444 103.245 73.8444 103.921Z" fill="#DE6656"/>
</g>
<g filter="url(#filter10_ii_2_3449)">
<path d="M98.7854 125.683C102.306 124.9 107.833 120.792 109.3 116.88C109.707 117.125 110.571 117.663 110.767 117.858C110.376 124.314 102.942 126.579 99.2745 126.905L98.7854 125.683Z" fill="#FFF3BC"/>
</g>
</g>
<defs>
<filter id="filter0_f_2_3449" x="56.3359" y="97.4729" width="31.412" height="25.7647" filterUnits="userSpaceOnUse" color-interpolation-filters="sRGB">
<feFlood flood-opacity="0" result="BackgroundImageFix"/>
<feBlend mode="normal" in="SourceGraphic" in2="BackgroundImageFix" result="shape"/>
<feGaussianBlur stdDeviation="0.489038" result="effect1_foregroundBlur_2_3449"/>
</filter>
<filter id="filter1_ii_2_3449" x="33.2544" y="117.125" width="12.4705" height="10.0253" filterUnits="userSpaceOnUse" color-interpolation-filters="sRGB">
<feFlood flood-opacity="0" result="BackgroundImageFix"/>
<feBlend mode="normal" in="SourceGraphic" in2="BackgroundImageFix" result="shape"/>
<feColorMatrix in="SourceAlpha" type="matrix" values="0 0 0 0 0 0 0 0 0 0 0 0 0 0 0 0 0 0 127 0" result="hardAlpha"/>
<feOffset dx="-0.489038"/>
<feGaussianBlur stdDeviation="0.733557"/>
<feComposite in2="hardAlpha" operator="arithmetic" k2="-1" k3="1"/>
<feColorMatrix type="matrix" values="0 0 0 0 0.9375 0 0 0 0 0.836319 0 0 0 0 0.476562 0 0 0 0.7 0"/>
<feBlend mode="normal" in2="shape" result="effect1_innerShadow_2_3449"/>
<feColorMatrix in="SourceAlpha" type="matrix" values="0 0 0 0 0 0 0 0 0 0 0 0 0 0 0 0 0 0 127 0" result="hardAlpha"/>
<feOffset dx="-0.489038"/>
<feGaussianBlur stdDeviation="0.733557"/>
<feComposite in2="hardAlpha" operator="arithmetic" k2="-1" k3="1"/>
<feColorMatrix type="matrix" values="0 0 0 0 0.9375 0 0 0 0 0.836319 0 0 0 0 0.476562 0 0 0 0.7 0"/>
<feBlend mode="normal" in2="effect1_innerShadow_2_3449" result="effect2_innerShadow_2_3449"/>
</filter>
<filter id="filter2_d_2_3449" x="60.1516" y="98.2966" width="24.9408" height="9.78074" filterUnits="userSpaceOnUse" color-interpolation-filters="sRGB">
<feFlood flood-opacity="0" result="BackgroundImageFix"/>
<feColorMatrix in="SourceAlpha" type="matrix" values="0 0 0 0 0 0 0 0 0 0 0 0 0 0 0 0 0 0 127 0" result="hardAlpha"/>
<feOffset dy="0.489038"/>
<feGaussianBlur stdDeviation="0.489038"/>
<feColorMatrix type="matrix" values="0 0 0 0 0.866667 0 0 0 0 0.580089 0 0 0 0 0.418889 0 0 0 0.3 0"/>
<feBlend mode="normal" in2="BackgroundImageFix" result="effect1_dropShadow_2_3449"/>
<feBlend mode="normal" in="SourceGraphic" in2="effect1_dropShadow_2_3449" result="shape"/>
</filter>
<filter id="filter3_d_2_3449" x="44.307" y="95.8504" width="55.6517" height="56.2404" filterUnits="userSpaceOnUse" color-interpolation-filters="sRGB">
<feFlood flood-opacity="0" result="BackgroundImageFix"/>
<feColorMatrix in="SourceAlpha" type="matrix" values="0 0 0 0 0 0 0 0 0 0 0 0 0 0 0 0 0 0 127 0" result="hardAlpha"/>
<feOffset/>
<feGaussianBlur stdDeviation="1.46711"/>
<feColorMatrix type="matrix" values="0 0 0 0 0.65 0 0 0 0 0.492537 0 0 0 0 0.186875 0 0 0 0.6 0"/>
<feBlend mode="normal" in2="BackgroundImageFix" result="effect1_dropShadow_2_3449"/>
<feBlend mode="normal" in="SourceGraphic" in2="effect1_dropShadow_2_3449" result="shape"/>
</filter>
<filter id="filter4_d_2_3449" x="56.5211" y="96.3405" width="31.2233" height="57.2175" filterUnits="userSpaceOnUse" color-interpolation-filters="sRGB">
<feFlood flood-opacity="0" result="BackgroundImageFix"/>
<feColorMatrix in="SourceAlpha" type="matrix" values="0 0 0 0 0 0 0 0 0 0 0 0 0 0 0 0 0 0 127 0" result="hardAlpha"/>
<feOffset/>
<feGaussianBlur stdDeviation="0.978076"/>
<feColorMatrix type="matrix" values="0 0 0 0 0.335211 0 0 0 0 0.5 0 0 0 0 0.05 0 0 0 0.6 0"/>
<feBlend mode="normal" in2="BackgroundImageFix" result="effect1_dropShadow_2_3449"/>
<feBlend mode="normal" in="SourceGraphic" in2="effect1_dropShadow_2_3449" result="shape"/>
</filter>
<filter id="filter5_d_2_3449" x="50.3706" y="131.551" width="13.5465" height="6.65806" filterUnits="userSpaceOnUse" color-interpolation-filters="sRGB">
<feFlood flood-opacity="0" result="BackgroundImageFix"/>
<feColorMatrix in="SourceAlpha" type="matrix" values="0 0 0 0 0 0 0 0 0 0 0 0 0 0 0 0 0 0 127 0" result="hardAlpha"/>
<feOffset dy="0.489038"/>
<feGaussianBlur stdDeviation="0.489038"/>
<feColorMatrix type="matrix" values="0 0 0 0 0.286275 0 0 0 0 0.388235 0 0 0 0 0.109804 0 0 0 1 0"/>
<feBlend mode="normal" in2="BackgroundImageFix" result="effect1_dropShadow_2_3449"/>
<feBlend mode="normal" in="SourceGraphic" in2="effect1_dropShadow_2_3449" result="shape"/>
</filter>
<filter id="filter6_d_2_3449" x="80.2021" y="131.551" width="13.5465" height="6.65806" filterUnits="userSpaceOnUse" color-interpolation-filters="sRGB">
<feFlood flood-opacity="0" result="BackgroundImageFix"/>
<feColorMatrix in="SourceAlpha" type="matrix" values="0 0 0 0 0 0 0 0 0 0 0 0 0 0 0 0 0 0 127 0" result="hardAlpha"/>
<feOffset dy="0.489038"/>
<feGaussianBlur stdDeviation="0.489038"/>
<feColorMatrix type="matrix" values="0 0 0 0 0.286275 0 0 0 0 0.388235 0 0 0 0 0.109804 0 0 0 1 0"/>
<feBlend mode="normal" in2="BackgroundImageFix" result="effect1_dropShadow_2_3449"/>
<feBlend mode="normal" in="SourceGraphic" in2="effect1_dropShadow_2_3449" result="shape"/>
</filter>
<filter id="filter7_d_2_3449" x="59.1733" y="111.99" width="25.9191" height="25.919" filterUnits="userSpaceOnUse" color-interpolation-filters="sRGB">
<feFlood flood-opacity="0" result="BackgroundImageFix"/>
<feColorMatrix in="SourceAlpha" type="matrix" values="0 0 0 0 0 0 0 0 0 0 0 0 0 0 0 0 0 0 127 0" result="hardAlpha"/>
<feOffset/>
<feGaussianBlur stdDeviation="5.62393"/>
<feColorMatrix type="matrix" values="0 0 0 0 0.162265 0 0 0 0 0.25 0 0 0 0 0.0104167 0 0 0 1 0"/>
<feBlend mode="normal" in2="BackgroundImageFix" result="effect1_dropShadow_2_3449"/>
<feBlend mode="normal" in="SourceGraphic" in2="effect1_dropShadow_2_3449" result="shape"/>
</filter>
<filter id="filter8_d_2_3449" x="59.1733" y="125.683" width="25.9191" height="25.919" filterUnits="userSpaceOnUse" color-interpolation-filters="sRGB">
<feFlood flood-opacity="0" result="BackgroundImageFix"/>
<feColorMatrix in="SourceAlpha" type="matrix" values="0 0 0 0 0 0 0 0 0 0 0 0 0 0 0 0 0 0 127 0" result="hardAlpha"/>
<feOffset/>
<feGaussianBlur stdDeviation="5.62393"/>
<feColorMatrix type="matrix" values="0 0 0 0 0.162265 0 0 0 0 0.25 0 0 0 0 0.0104167 0 0 0 1 0"/>
<feBlend mode="normal" in2="BackgroundImageFix" result="effect1_dropShadow_2_3449"/>
<feBlend mode="normal" in="SourceGraphic" in2="effect1_dropShadow_2_3449" result="shape"/>
</filter>
<filter id="filter9_d_2_3449" x="64.049" y="101.834" width="16.6568" height="9.91135" filterUnits="userSpaceOnUse" color-interpolation-filters="sRGB">
<feFlood flood-opacity="0" result="BackgroundImageFix"/>
<feColorMatrix in="SourceAlpha" type="matrix" values="0 0 0 0 0 0 0 0 0 0 0 0 0 0 0 0 0 0 127 0" result="hardAlpha"/>
<feOffset dy="0.489038"/>
<feGaussianBlur stdDeviation="0.489038"/>
<feColorMatrix type="matrix" values="0 0 0 0 0.533333 0 0 0 0 0.0688889 0 0 0 0 0.0688889 0 0 0 0.3 0"/>
<feBlend mode="normal" in2="BackgroundImageFix" result="effect1_dropShadow_2_3449"/>
<feBlend mode="normal" in="SourceGraphic" in2="effect1_dropShadow_2_3449" result="shape"/>
</filter>
<filter id="filter10_ii_2_3449" x="98.2964" y="116.88" width="12.4705" height="10.0253" filterUnits="userSpaceOnUse" color-interpolation-filters="sRGB">
<feFlood flood-opacity="0" result="BackgroundImageFix"/>
<feBlend mode="normal" in="SourceGraphic" in2="BackgroundImageFix" result="shape"/>
<feColorMatrix in="SourceAlpha" type="matrix" values="0 0 0 0 0 0 0 0 0 0 0 0 0 0 0 0 0 0 127 0" result="hardAlpha"/>
<feOffset dx="-0.489038"/>
<feGaussianBlur stdDeviation="0.733557"/>
<feComposite in2="hardAlpha" operator="arithmetic" k2="-1" k3="1"/>
<feColorMatrix type="matrix" values="0 0 0 0 0.9375 0 0 0 0 0.836319 0 0 0 0 0.476562 0 0 0 0.7 0"/>
<feBlend mode="normal" in2="shape" result="effect1_innerShadow_2_3449"/>
<feColorMatrix in="SourceAlpha" type="matrix" values="0 0 0 0 0 0 0 0 0 0 0 0 0 0 0 0 0 0 127 0" result="hardAlpha"/>
<feOffset dx="-0.489038"/>
<feGaussianBlur stdDeviation="0.733557"/>
<feComposite in2="hardAlpha" operator="arithmetic" k2="-1" k3="1"/>
<feColorMatrix type="matrix" values="0 0 0 0 0.9375 0 0 0 0 0.836319 0 0 0 0 0.476562 0 0 0 0.7 0"/>
<feBlend mode="normal" in2="effect1_innerShadow_2_3449" result="effect2_innerShadow_2_3449"/>
</filter>
<clipPath id="clip0_2_3449">
<rect width="31.7875" height="12.715" fill="white" transform="translate(56.7285 75.3119)"/>
</clipPath>
<clipPath id="clip1_2_3449">
<rect width="16.1382" height="16.1382" fill="white" transform="translate(64.553 59.1736)"/>
</clipPath>
</defs>
</svg>
