<svg width="145" height="145" viewBox="0 0 145 145" fill="none" xmlns="http://www.w3.org/2000/svg">
<circle cx="73.2552" cy="73.2552" r="65.4427" fill="#CE8700" stroke="#CE8700" stroke-width="2.5"/>
<circle cx="73.2552" cy="73.2552" r="64.1927" fill="#F8BE1A"/>
<path d="M121.134 73.2552C121.134 99.6748 99.3533 121.134 72.4324 121.134C45.5116 121.134 23.7305 99.6748 23.7305 73.2552C23.7305 46.8357 45.5116 25.3762 72.4324 25.3762C99.3533 25.3762 121.134 46.8357 121.134 73.2552Z" fill="#FFDF85" stroke="#DAAB07" stroke-width="3"/>
<path d="M71.4577 34.3025C71.8927 33.5684 72.9716 33.5684 73.4066 34.3025L85.6709 54.9983C85.8302 55.2672 86.0973 55.4579 86.4067 55.5238L110.222 60.5927C111.067 60.7724 111.401 61.781 110.825 62.4144L94.5887 80.2741C94.3777 80.5061 94.2757 80.8146 94.3076 81.1242L96.7623 104.953C96.8494 105.798 95.9765 106.421 95.1856 106.079L72.8869 96.4207C72.5972 96.2953 72.2671 96.2953 71.9774 96.4207L49.6787 106.079C48.8879 106.421 48.015 105.798 48.102 104.953L50.5567 81.1242C50.5886 80.8146 50.4866 80.5061 50.2757 80.2741L34.0397 62.4144C33.4638 61.781 33.7972 60.7724 34.6419 60.5927L58.4577 55.5238C58.7671 55.4579 59.0341 55.2672 59.1934 54.9983L71.4577 34.3025Z" fill="#E79800"/>
<mask id="mask0_1831_27" style="mask-type:alpha" maskUnits="userSpaceOnUse" x="9" y="9" width="129" height="129">
<path d="M137.448 73.2552C137.448 108.708 108.708 137.448 73.2552 137.448C37.8025 137.448 9.0625 108.708 9.0625 73.2552C9.0625 37.8025 37.8025 9.0625 73.2552 9.0625C108.708 9.0625 137.448 37.8025 137.448 73.2552Z" fill="#CE8700"/>
</mask>
<g mask="url(#mask0_1831_27)">
<g opacity="0.2">
<g style="mix-blend-mode:screen">
<rect width="159.626" height="36.0872" transform="matrix(0.912469 -0.409145 0.300017 0.953934 -7.36963 69.8007)" fill="#FFF272"/>
</g>
<g style="mix-blend-mode:screen">
<rect width="159.626" height="17.1728" transform="matrix(0.912469 -0.409145 0.300017 0.953934 2.41992 118.571)" fill="#FFF272"/>
</g>
</g>
</g>
</svg>
