<svg width="37" height="37" viewBox="0 0 37 37" fill="none" xmlns="http://www.w3.org/2000/svg">
<path fill-rule="evenodd" clip-rule="evenodd" d="M18.2547 36.5095C28.3366 36.5095 36.5095 28.3366 36.5095 18.2547C36.5095 8.17292 28.3366 0 18.2547 0C8.17292 0 0 8.17292 0 18.2547C0 28.3366 8.17292 36.5095 18.2547 36.5095ZM18.2549 33.7989C26.8396 33.7989 33.7989 26.8396 33.7989 18.2549C33.7989 9.67021 26.8396 2.71094 18.2549 2.71094C9.67021 2.71094 2.71094 9.67021 2.71094 18.2549C2.71094 26.8396 9.67021 33.7989 18.2549 33.7989Z" fill="#FFFAE6"/>
<path fill-rule="evenodd" clip-rule="evenodd" d="M18.2549 33.7989C26.8396 33.7989 33.7989 26.8396 33.7989 18.2549C33.7989 9.67021 26.8396 2.71094 18.2549 2.71094C9.67021 2.71094 2.71094 9.67021 2.71094 18.2549C2.71094 26.8396 9.67021 33.7989 18.2549 33.7989ZM7.72838 19.0564L10.1621 16.7401C10.46 16.3581 11.2248 15.8233 11.9002 16.7401C12.5756 17.6568 13.9533 19.3043 14.5577 20.0135C14.8131 20.2121 15.4931 20.4712 16.1699 19.9195C16.8467 19.3678 23.7448 13.5341 27.1093 10.6862C27.4231 10.4228 28.176 9.99203 28.6771 10.3764C29.3033 10.8568 29.2446 11.6831 28.3639 12.5863C27.6594 13.3088 19.941 21.5732 16.1699 25.615C15.6484 26.121 14.3 26.8295 13.0788 25.615C11.8575 24.4005 9.07319 21.7013 7.83368 20.5034C7.54303 20.2643 7.11505 19.6401 7.72838 19.0564Z" fill="#03B0AA"/>
<circle opacity="0.2" cx="18.2549" cy="18.2549" r="15.544" fill="#03B0AA"/>
</svg>
